<?xml version="1.0" standalone="no"?>
<!DOCTYPE svg PUBLIC "-//W3C//DTD SVG 20010904//EN"
 "http://www.w3.org/TR/2001/REC-SVG-20010904/DTD/svg10.dtd">
<svg version="1.0" xmlns="http://www.w3.org/2000/svg"
 width="600.000000pt" height="600.000000pt" viewBox="0 0 600.000000 600.000000"
 preserveAspectRatio="xMidYMid meet">
<metadata>
Created by potrace 1.16, written by Peter Selinger 2001-2019
</metadata>
<g transform="translate(0.000000,600.000000) scale(0.100000,-0.100000)"
fill="#ff291a" stroke="none">
<path d="M1770 4501 c-151 -88 -285 -169 -297 -180 l-23 -19 1 -949 c1 -521 4
-961 8 -977 6 -31 -12 -19 356 -231 88 -51 214 -124 280 -162 326 -190 509
-293 521 -293 7 0 95 48 196 107 101 58 197 114 213 123 17 10 118 68 225 130
107 62 267 154 355 205 l160 91 5 323 5 323 225 130 c124 71 248 142 275 158
l50 28 3 346 2 346 -37 23 c-21 13 -58 35 -83 49 -177 100 -437 251 -444 259
-20 19 -53 7 -190 -72 -173 -100 -191 -110 -291 -167 -44 -25 -97 -56 -117
-70 l-38 -25 0 -316 c0 -308 -1 -317 -20 -329 -40 -25 -306 -179 -373 -217
-37 -20 -70 -35 -73 -33 -2 3 -5 270 -5 594 0 324 -5 599 -9 611 -5 12 -43 41
-87 65 -174 99 -469 271 -477 279 -6 5 -17 9 -25 9 -9 0 -140 -72 -291 -159z
m363 20 c35 -21 73 -42 85 -45 12 -4 22 -12 22 -17 0 -5 5 -9 12 -9 6 0 32
-13 57 -28 25 -16 83 -51 129 -77 93 -53 93 -53 12 -98 -25 -13 -72 -40 -105
-59 -33 -20 -111 -65 -174 -101 l-114 -67 -56 32 c-31 17 -103 59 -161 93 -58
34 -135 79 -172 99 -38 21 -68 43 -68 49 0 13 436 267 457 267 7 0 41 -17 76
-39z m1676 -318 c280 -157 381 -218 381 -230 0 -7 -4 -13 -10 -13 -5 0 -40
-19 -77 -41 -63 -39 -111 -66 -297 -170 -38 -22 -73 -39 -78 -39 -5 0 -68 34
-141 77 -73 42 -172 99 -221 127 -49 28 -91 56 -93 61 -1 6 72 53 164 105 92
52 189 110 217 127 28 18 60 33 70 33 11 0 49 -17 85 -37z m-2113 -74 c77 -44
155 -90 174 -100 19 -11 58 -33 85 -49 l50 -28 3 -633 c2 -570 4 -634 19 -651
15 -16 144 -93 187 -111 10 -4 30 -15 45 -26 26 -18 70 -43 191 -109 36 -20
77 -44 93 -54 l27 -19 0 -265 c0 -211 -3 -264 -13 -264 -7 0 -40 16 -73 36
-32 20 -77 46 -99 59 -38 21 -181 103 -540 310 -257 148 -269 155 -285 164
-13 7 -15 121 -18 915 -1 522 2 906 7 906 5 0 71 -36 147 -81z m872 -506 l-3
-587 -90 -52 c-49 -28 -150 -85 -223 -128 -74 -42 -138 -76 -143 -76 -6 0 -8
229 -7 586 l3 586 225 129 c124 71 228 129 233 129 4 0 6 -264 5 -587z m848
164 c99 -57 198 -114 222 -127 l42 -24 0 -268 c0 -147 -2 -268 -4 -268 -11 0
-426 239 -450 260 -14 11 -16 49 -16 265 0 235 2 265 20 265 4 0 88 -46 186
-103z m824 -162 c0 -264 0 -265 -22 -278 -67 -42 -249 -147 -254 -147 -3 0
-28 -15 -57 -33 -76 -49 -120 -68 -129 -59 -5 5 -7 124 -6 266 l3 258 40 23
c22 12 123 70 225 129 102 58 188 106 193 106 4 0 7 -119 7 -265z m-982 -385
c34 -22 66 -40 69 -40 4 0 38 -20 77 -43 39 -24 106 -64 148 -88 43 -24 78
-48 78 -54 0 -5 -91 -61 -203 -124 -111 -63 -218 -124 -237 -136 -38 -24 -456
-263 -531 -304 l-45 -24 -125 70 c-68 38 -144 81 -169 95 -144 81 -160 91
-160 103 0 5 35 30 78 54 42 25 110 64 149 88 40 24 75 43 79 43 3 0 18 8 32
18 15 11 54 34 87 52 33 18 83 46 110 62 28 16 142 83 255 148 113 65 214 119
225 119 11 1 48 -17 83 -39z m422 -578 l0 -267 -122 -70 c-67 -39 -142 -82
-167 -96 -25 -15 -107 -62 -181 -104 -74 -43 -164 -95 -200 -115 -36 -20 -125
-71 -198 -113 -74 -43 -139 -77 -145 -77 -9 0 -11 68 -10 266 1 147 3 267 5
268 2 1 30 18 63 37 33 20 130 76 215 124 154 87 199 113 545 311 99 57 183
104 188 104 4 0 7 -120 7 -268z"/>
<path d="M1332 1143 l3 -348 165 0 165 0 3 29 c2 15 1 39 -2 52 -6 23 -9 24
-111 24 l-105 0 0 295 0 295 -60 0 -60 0 2 -347z"/>
<path d="M4212 1143 l3 -348 53 -3 52 -3 0 350 0 351 -55 0 -55 0 2 -347z"/>
<path d="M1850 1252 c-61 -29 -97 -63 -126 -115 -78 -143 16 -327 180 -354 44
-7 119 13 142 38 24 27 44 24 44 -6 0 -23 3 -25 50 -25 l50 0 0 230 0 229 -34
6 c-45 9 -76 -2 -76 -26 0 -23 -13 -25 -30 -4 -35 43 -139 57 -200 27z m141
-83 c69 -23 105 -94 89 -178 -16 -86 -57 -115 -152 -109 -91 7 -135 65 -123
165 12 99 93 153 186 122z"/>
<path d="M2782 1260 c-105 -22 -177 -120 -177 -240 1 -79 26 -132 85 -183 75
-64 174 -73 251 -23 48 32 49 32 49 1 0 -23 3 -25 50 -25 l50 0 0 230 0 230
-50 0 c-43 0 -50 -3 -50 -20 0 -25 -3 -25 -48 4 -44 29 -100 38 -160 26z m121
-94 c18 -7 43 -26 57 -41 22 -23 25 -36 25 -102 0 -73 -1 -75 -37 -109 -35
-31 -43 -34 -101 -34 -58 0 -66 3 -94 33 -56 57 -65 107 -34 181 32 72 110
104 184 72z"/>
<path d="M3799 1245 c-104 -55 -149 -152 -128 -274 31 -174 260 -252 395 -136
16 14 32 25 37 25 14 0 7 26 -11 41 -35 30 -42 30 -79 2 -32 -25 -45 -28 -109
-28 -65 0 -76 3 -99 25 -14 14 -29 40 -34 58 l-10 32 191 0 191 0 -6 50 c-7
54 -49 144 -82 172 -36 31 -79 46 -145 52 -57 5 -71 3 -111 -19z m166 -71 c35
-16 82 -88 65 -99 -5 -3 -65 -6 -132 -7 -121 -2 -123 -1 -126 21 -6 42 68 101
126 101 19 0 49 -7 67 -16z"/>
<path d="M2307 1253 c-16 -4 -17 -22 -15 -231 l3 -227 50 -3 50 -3 0 178 0
178 93 3 92 3 0 48 c0 35 -4 51 -16 55 -18 7 -230 6 -257 -1z"/>
<path d="M3170 1247 c0 -7 30 -89 66 -182 36 -94 75 -194 86 -223 l20 -53 66
3 66 3 17 45 c89 225 148 381 151 395 2 15 -4 18 -36 19 -21 1 -44 -3 -51 -9
-7 -5 -41 -83 -76 -172 -35 -90 -67 -163 -71 -163 -4 0 -13 15 -21 33 -36 82
-67 158 -92 230 -25 69 -30 77 -54 78 -14 0 -36 2 -48 5 -14 2 -23 -1 -23 -9z"/>
</g>
</svg>
